<svg xmlns="http://www.w3.org/2000/svg" xmlns:xlink="http://www.w3.org/1999/xlink" width="500" zoomAndPan="magnify" viewBox="0 0 375 374.999991" height="500" preserveAspectRatio="xMidYMid meet" version="1.0"><defs><g/><clipPath id="902cfbab9a"><path d="M 33.324219 0 L 342.183594 0 L 342.183594 374.996094 L 33.324219 374.996094 Z M 33.324219 0 " clip-rule="nonzero"/></clipPath><clipPath id="b586bd6230"><path d="M 57.417969 55 L 317.140625 55 L 317.140625 343.46875 L 57.417969 343.46875 Z M 57.417969 55 " clip-rule="nonzero"/></clipPath></defs><g clip-path="url(#902cfbab9a)"><path fill="#7cb245" d="M 187.8125 -0.9375 L 240.167969 33.347656 L 342.183594 100.050781 L 342.183594 375.40625 L 33.324219 375.40625 L 33.324219 100.109375 L 135.335938 33.40625 Z M 333.1875 104.984375 L 235.25 40.925781 L 187.8125 9.828125 L 140.195312 40.925781 L 42.261719 104.984375 L 42.261719 366.386719 L 333.125 366.386719 L 333.125 104.984375 Z M 333.1875 104.984375 " fill-opacity="1" fill-rule="nonzero"/></g><g clip-path="url(#b586bd6230)"><path fill="#7cb245" d="M 317.089844 216.972656 C 317.125 219.871094 316.878906 222.765625 316.714844 225.664062 C 316.628906 227.113281 316.414062 228.550781 316.269531 229.996094 C 316.101562 231.441406 315.972656 232.890625 315.707031 234.316406 C 312.371094 257.347656 302.285156 279.390625 287.214844 297.324219 C 272.164062 315.269531 252.078125 329.15625 229.636719 336.621094 C 224.019531 338.4375 218.3125 340.046875 212.480469 341.070312 L 210.300781 341.492188 C 209.574219 341.632812 208.839844 341.710938 208.105469 341.824219 L 203.707031 342.449219 L 199.285156 342.859375 L 197.070312 343.058594 L 194.851562 343.15625 L 190.40625 343.332031 L 185.957031 343.292969 L 183.734375 343.269531 C 182.992188 343.242188 182.253906 343.1875 181.511719 343.144531 L 177.066406 342.871094 L 172.636719 342.378906 L 170.417969 342.128906 L 168.21875 341.769531 L 163.816406 341.035156 L 159.453125 340.097656 C 136.210938 334.839844 114.429688 322.980469 97.238281 306.214844 C 80.027344 289.476562 67.472656 267.847656 61.519531 244.371094 L 60.445312 239.957031 L 59.582031 235.5 C 59.449219 234.753906 59.28125 234.011719 59.171875 233.265625 L 58.851562 231.015625 C 58.648438 229.515625 58.402344 228.015625 58.238281 226.511719 C 57.988281 223.496094 57.613281 220.476562 57.5625 217.445312 C 57.511719 215.933594 57.414062 214.414062 57.410156 212.898438 L 57.46875 208.347656 C 57.675781 196.207031 59.71875 184.082031 63.273438 172.414062 C 66.773438 160.714844 72.109375 149.585938 78.6875 139.273438 C 79.472656 137.957031 80.390625 136.730469 81.257812 135.464844 C 82.144531 134.21875 82.984375 132.933594 83.917969 131.726562 C 85.820312 129.328125 87.625 126.839844 89.6875 124.566406 C 90.695312 123.414062 91.683594 122.242188 92.714844 121.109375 C 93.464844 120.332031 94.046875 119.410156 94.453125 118.40625 C 120.085938 55.238281 209.070312 31.222656 277.5 86.078125 C 278.5625 86.933594 278.003906 88.652344 276.644531 88.707031 C 253.765625 89.628906 237.492188 109.78125 214.191406 127.824219 C 189.503906 146.945312 156.9375 163.691406 100.269531 152.660156 C 100.046875 152.621094 99.824219 152.570312 99.605469 152.519531 C 97.257812 151.941406 96.554688 148.949219 98.449219 147.445312 C 100.445312 145.867188 102.472656 144.3125 104.515625 142.777344 C 109.65625 138.933594 114.941406 135.234375 120.320312 131.664062 C 123.007812 129.875 125.71875 128.121094 128.453125 126.394531 C 131.191406 124.675781 133.945312 122.988281 136.722656 121.332031 C 142.28125 118.007812 147.917969 114.828125 153.640625 111.792969 C 159.359375 108.757812 165.171875 105.878906 171.070312 103.203125 C 176.972656 100.523438 182.972656 98.050781 189.101562 95.921875 C 192.167969 94.855469 195.265625 93.882812 198.40625 93.046875 C 200.152344 92.578125 201.910156 92.15625 203.683594 91.78125 C 203.890625 91.738281 203.835938 91.429688 203.628906 91.457031 C 201.824219 91.691406 200.03125 91.984375 198.238281 92.316406 C 195.023438 92.917969 191.832031 93.652344 188.667969 94.488281 C 182.335938 96.152344 176.097656 98.183594 169.941406 100.425781 C 163.785156 102.667969 157.699219 105.121094 151.691406 107.746094 C 145.679688 110.367188 139.734375 113.144531 133.855469 116.066406 C 130.917969 117.53125 127.992188 119.027344 125.085938 120.558594 C 122.179688 122.09375 119.292969 123.664062 116.421875 125.265625 C 112.523438 127.449219 108.660156 129.699219 104.832031 132.027344 L 104.542969 132.308594 C 103.605469 133.273438 102.710938 134.285156 101.789062 135.273438 C 99.90625 137.210938 98.265625 139.359375 96.515625 141.417969 C 95.660156 142.460938 94.890625 143.578125 94.070312 144.652344 C 93.277344 145.742188 92.421875 146.796875 91.703125 147.941406 C 85.625 156.875 80.578125 166.585938 77.160156 176.894531 C 73.6875 187.175781 71.515625 197.945312 71.007812 208.859375 L 70.832031 212.953125 C 70.789062 214.316406 70.84375 215.683594 70.84375 217.050781 C 70.800781 219.789062 71.070312 222.511719 71.207031 225.242188 C 71.3125 226.605469 71.496094 227.960938 71.636719 229.320312 L 71.863281 231.363281 C 71.9375 232.039062 72.074219 232.714844 72.175781 233.390625 L 72.832031 237.441406 L 73.683594 241.457031 C 78.425781 262.847656 89.234375 282.953125 104.621094 298.851562 C 119.984375 314.765625 139.832031 326.417969 161.417969 331.992188 L 165.472656 332.996094 L 169.578125 333.804688 L 171.632812 334.207031 L 173.703125 334.5 L 177.847656 335.085938 L 182.023438 335.46875 C 182.71875 335.53125 183.414062 335.609375 184.109375 335.65625 L 186.203125 335.738281 L 190.398438 335.90625 L 194.597656 335.863281 L 196.699219 335.835938 L 198.792969 335.710938 L 202.984375 335.445312 L 207.164062 334.980469 C 207.855469 334.898438 208.558594 334.839844 209.25 334.734375 L 211.328125 334.394531 C 216.882812 333.597656 222.339844 332.222656 227.734375 330.660156 C 249.28125 324.214844 268.976562 311.519531 284.0625 294.59375 C 299.160156 277.691406 309.6875 256.523438 313.648438 233.976562 C 313.953125 232.582031 314.121094 231.160156 314.328125 229.742188 C 314.515625 228.324219 314.769531 226.914062 314.898438 225.492188 C 315.144531 222.640625 315.476562 219.792969 315.527344 216.925781 C 315.664062 214.0625 315.734375 211.199219 315.636719 208.328125 C 315.570312 205.460938 315.40625 202.59375 315.132812 199.738281 C 314.070312 188.304688 311.433594 176.992188 307.28125 166.238281 C 311.753906 176.863281 314.753906 188.132812 316.167969 199.625 C 316.53125 202.5 316.78125 205.382812 316.9375 208.277344 C 317.125 211.171875 317.144531 214.070312 317.089844 216.972656 " fill-opacity="1" fill-rule="nonzero"/></g><g fill="#7cb245" fill-opacity="1"><g transform="translate(109.039794, 226.644521)"><g><path d="M 6.34375 -32.28125 C 6.34375 -34.3125 6.0625 -35.816406 5.5 -36.796875 C 4.9375 -37.773438 3.820312 -38.265625 2.15625 -38.265625 L 0.953125 -38.265625 L 0.953125 -39.453125 L 6.34375 -39.453125 C 7.8125 -39.453125 8.914062 -39.257812 9.65625 -38.875 C 10.394531 -38.5 10.921875 -37.8125 11.234375 -36.8125 C 11.554688 -35.820312 11.71875 -34.3125 11.71875 -32.28125 L 11.71875 -21.515625 L 29.65625 -21.515625 L 29.65625 -39.453125 L 35.03125 -39.453125 L 35.03125 -7.171875 C 35.03125 -5.140625 35.304688 -3.632812 35.859375 -2.65625 C 36.421875 -1.6875 37.539062 -1.203125 39.21875 -1.203125 L 40.40625 -1.203125 L 40.40625 0 L 35.03125 0 C 33.550781 0 32.441406 -0.1875 31.703125 -0.5625 C 30.972656 -0.945312 30.445312 -1.632812 30.125 -2.625 C 29.8125 -3.625 29.65625 -5.140625 29.65625 -7.171875 L 29.65625 -19.125 L 11.71875 -19.125 L 11.71875 0 L 6.34375 0 Z M 6.34375 -32.28125 "/></g></g></g><g fill="#7cb245" fill-opacity="1"><g transform="translate(145.800874, 226.644521)"><g><path d="M 21.28125 1.203125 C 17.570312 1.203125 14.3125 0.285156 11.5 -1.546875 C 8.695312 -3.378906 6.535156 -5.890625 5.015625 -9.078125 C 3.503906 -12.273438 2.75 -15.828125 2.75 -19.734375 C 2.75 -23.640625 3.503906 -27.1875 5.015625 -30.375 C 6.535156 -33.5625 8.695312 -36.070312 11.5 -37.90625 C 14.3125 -39.738281 17.570312 -40.65625 21.28125 -40.65625 C 24.988281 -40.65625 28.242188 -39.738281 31.046875 -37.90625 C 33.859375 -36.070312 36.019531 -33.5625 37.53125 -30.375 C 39.050781 -27.1875 39.8125 -23.640625 39.8125 -19.734375 C 39.8125 -15.828125 39.050781 -12.273438 37.53125 -9.078125 C 36.019531 -5.890625 33.859375 -3.378906 31.046875 -1.546875 C 28.242188 0.285156 24.988281 1.203125 21.28125 1.203125 Z M 21.28125 -1.203125 C 23.875 -1.203125 26.113281 -1.957031 28 -3.46875 C 29.894531 -4.976562 31.34375 -7.117188 32.34375 -9.890625 C 33.34375 -12.660156 33.84375 -15.941406 33.84375 -19.734375 C 33.84375 -23.515625 33.34375 -26.789062 32.34375 -29.5625 C 31.34375 -32.332031 29.894531 -34.472656 28 -35.984375 C 26.113281 -37.503906 23.875 -38.265625 21.28125 -38.265625 C 18.6875 -38.265625 16.441406 -37.503906 14.546875 -35.984375 C 12.660156 -34.472656 11.21875 -32.332031 10.21875 -29.5625 C 9.226562 -26.789062 8.734375 -23.515625 8.734375 -19.734375 C 8.734375 -15.941406 9.226562 -12.660156 10.21875 -9.890625 C 11.21875 -7.117188 12.660156 -4.976562 14.546875 -3.46875 C 16.441406 -1.957031 18.6875 -1.203125 21.28125 -1.203125 Z M 21.28125 -1.203125 "/></g></g></g><g fill="#7cb245" fill-opacity="1"><g transform="translate(183.697693, 226.644521)"><g><path d="M 50.28125 2.6875 C 47.40625 2.6875 45.171875 2.25 43.578125 1.375 C 41.984375 0.5 40.859375 -0.863281 40.203125 -2.71875 C 39.546875 -4.570312 39.21875 -7.050781 39.21875 -10.15625 L 39.21875 -33.171875 L 24.265625 0 L 23.078125 0 L 7.53125 -33.78125 L 7.53125 0 L 5.140625 0 L 5.140625 -39.453125 L 10.828125 -39.453125 L 25.171875 -8.375 L 39.21875 -39.453125 L 44.59375 -39.453125 L 44.59375 -10.15625 C 44.59375 -6.457031 45.0625 -3.585938 46 -1.546875 C 46.9375 0.484375 48.363281 1.5 50.28125 1.5 Z M 50.28125 2.6875 "/></g></g></g><g fill="#7cb245" fill-opacity="1"><g transform="translate(230.142416, 226.644521)"><g><path d="M 6.34375 -32.28125 C 6.34375 -34.3125 6.0625 -35.816406 5.5 -36.796875 C 4.9375 -37.773438 3.820312 -38.265625 2.15625 -38.265625 L 0.953125 -38.265625 L 0.953125 -39.453125 L 26.421875 -39.453125 C 29.804688 -39.453125 31.5 -37.859375 31.5 -34.671875 L 31.5 -30.1875 L 30.3125 -30.1875 C 30.3125 -34.769531 27.820312 -37.0625 22.84375 -37.0625 L 11.71875 -37.0625 L 11.71875 -21.515625 L 27.859375 -21.515625 L 27.859375 -19.125 L 11.71875 -19.125 L 11.71875 -2.390625 L 22.171875 -2.390625 C 24.921875 -2.390625 27.070312 -2.882812 28.625 -3.875 C 30.1875 -4.875 31.425781 -6.570312 32.34375 -8.96875 L 33.53125 -8.671875 L 31.4375 -2.984375 C 30.726562 -0.992188 29.238281 0 26.96875 0 L 6.34375 0 Z M 6.34375 -32.28125 "/></g></g></g><g fill="#7cb245" fill-opacity="1"><g transform="translate(107.760196, 273.441249)"><g><path d="M 22.953125 1.203125 C 19.046875 1.203125 15.546875 0.242188 12.453125 -1.671875 C 9.367188 -3.585938 6.957031 -6.1875 5.21875 -9.46875 C 3.488281 -12.757812 2.625 -16.378906 2.625 -20.328125 C 2.625 -24.109375 3.378906 -27.539062 4.890625 -30.625 C 6.410156 -33.71875 8.578125 -36.160156 11.390625 -37.953125 C 14.203125 -39.753906 17.457031 -40.65625 21.15625 -40.65625 C 24.582031 -40.65625 27.539062 -40.207031 30.03125 -39.3125 C 32.53125 -38.414062 34.359375 -37.269531 35.515625 -35.875 C 36.148438 -35.070312 36.554688 -34.015625 36.734375 -32.703125 C 36.910156 -31.390625 37 -29.753906 37 -27.796875 L 35.8125 -27.796875 C 35.050781 -31.304688 33.613281 -33.925781 31.5 -35.65625 C 29.394531 -37.394531 26.546875 -38.265625 22.953125 -38.265625 C 19.722656 -38.265625 17.03125 -37.414062 14.875 -35.71875 C 12.726562 -34.019531 11.144531 -31.816406 10.125 -29.109375 C 9.113281 -26.398438 8.609375 -23.472656 8.609375 -20.328125 C 8.609375 -13.585938 9.921875 -8.710938 12.546875 -5.703125 C 15.179688 -2.703125 18.648438 -1.203125 22.953125 -1.203125 C 24.984375 -1.203125 26.71875 -1.378906 28.15625 -1.734375 C 29.59375 -2.085938 30.945312 -2.601562 32.21875 -3.28125 L 32.21875 -13.6875 C 32.21875 -15.039062 32.4375 -16.21875 32.875 -17.21875 C 33.3125 -18.21875 34.257812 -19.046875 35.71875 -19.703125 C 37.175781 -20.359375 39.300781 -20.6875 42.09375 -20.6875 L 42.09375 -19.484375 C 40.289062 -19.484375 39.09375 -19.023438 38.5 -18.109375 C 37.90625 -17.191406 37.609375 -15.757812 37.609375 -13.8125 L 37.609375 -2.578125 C 35.453125 -1.253906 33.195312 -0.296875 30.84375 0.296875 C 28.488281 0.898438 25.859375 1.203125 22.953125 1.203125 Z M 22.953125 1.203125 "/></g></g></g><g fill="#7cb245" fill-opacity="1"><g transform="translate(146.135217, 273.441249)"><g><path d="M 32.640625 0.59375 C 30.523438 0.59375 28.679688 -0.03125 27.109375 -1.28125 C 25.535156 -2.539062 23.789062 -4.804688 21.875 -8.078125 L 15.90625 -18.234375 L 11.71875 -18.234375 L 11.71875 0 L 6.34375 0 L 6.34375 -32.28125 C 6.34375 -34.3125 6.0625 -35.816406 5.5 -36.796875 C 4.9375 -37.773438 3.820312 -38.265625 2.15625 -38.265625 L 0.953125 -38.265625 L 0.953125 -39.453125 L 16.5 -39.453125 C 20.28125 -39.453125 23.710938 -38.703125 26.796875 -37.203125 C 29.890625 -35.710938 31.4375 -32.875 31.4375 -28.6875 C 31.4375 -23.394531 28.25 -20.007812 21.875 -18.53125 L 28.15625 -8.078125 C 29.632812 -5.597656 30.957031 -3.867188 32.125 -2.890625 C 33.300781 -1.921875 34.671875 -1.359375 36.234375 -1.203125 L 36.234375 0 C 35.867188 0.15625 35.359375 0.289062 34.703125 0.40625 C 34.046875 0.53125 33.359375 0.59375 32.640625 0.59375 Z M 16.203125 -20.328125 C 17.429688 -20.328125 18.773438 -20.625 20.234375 -21.21875 C 21.691406 -21.820312 22.925781 -22.757812 23.9375 -24.03125 C 24.957031 -25.300781 25.46875 -26.851562 25.46875 -28.6875 C 25.46875 -30.644531 24.957031 -32.269531 23.9375 -33.5625 C 22.925781 -34.863281 21.691406 -35.820312 20.234375 -36.4375 C 18.773438 -37.050781 17.429688 -37.359375 16.203125 -37.359375 C 14.804688 -37.359375 13.3125 -37.160156 11.71875 -36.765625 L 11.71875 -20.921875 C 13.3125 -20.523438 14.804688 -20.328125 16.203125 -20.328125 Z M 16.203125 -20.328125 "/></g></g></g><g fill="#7cb245" fill-opacity="1"><g transform="translate(177.038281, 273.441249)"><g><path d="M 21.28125 1.203125 C 17.570312 1.203125 14.3125 0.285156 11.5 -1.546875 C 8.695312 -3.378906 6.535156 -5.890625 5.015625 -9.078125 C 3.503906 -12.273438 2.75 -15.828125 2.75 -19.734375 C 2.75 -23.640625 3.503906 -27.1875 5.015625 -30.375 C 6.535156 -33.5625 8.695312 -36.070312 11.5 -37.90625 C 14.3125 -39.738281 17.570312 -40.65625 21.28125 -40.65625 C 24.988281 -40.65625 28.242188 -39.738281 31.046875 -37.90625 C 33.859375 -36.070312 36.019531 -33.5625 37.53125 -30.375 C 39.050781 -27.1875 39.8125 -23.640625 39.8125 -19.734375 C 39.8125 -15.828125 39.050781 -12.273438 37.53125 -9.078125 C 36.019531 -5.890625 33.859375 -3.378906 31.046875 -1.546875 C 28.242188 0.285156 24.988281 1.203125 21.28125 1.203125 Z M 21.28125 -1.203125 C 23.875 -1.203125 26.113281 -1.957031 28 -3.46875 C 29.894531 -4.976562 31.34375 -7.117188 32.34375 -9.890625 C 33.34375 -12.660156 33.84375 -15.941406 33.84375 -19.734375 C 33.84375 -23.515625 33.34375 -26.789062 32.34375 -29.5625 C 31.34375 -32.332031 29.894531 -34.472656 28 -35.984375 C 26.113281 -37.503906 23.875 -38.265625 21.28125 -38.265625 C 18.6875 -38.265625 16.441406 -37.503906 14.546875 -35.984375 C 12.660156 -34.472656 11.21875 -32.332031 10.21875 -29.5625 C 9.226562 -26.789062 8.734375 -23.515625 8.734375 -19.734375 C 8.734375 -15.941406 9.226562 -12.660156 10.21875 -9.890625 C 11.21875 -7.117188 12.660156 -4.976562 14.546875 -3.46875 C 16.441406 -1.957031 18.6875 -1.203125 21.28125 -1.203125 Z M 21.28125 -1.203125 "/></g></g></g><g fill="#7cb245" fill-opacity="1"><g transform="translate(214.9351, 273.441249)"><g><path d="M 4.65625 -32.46875 C 3.863281 -34.769531 3.019531 -36.347656 2.125 -37.203125 C 1.226562 -38.066406 -0.113281 -38.578125 -1.90625 -38.734375 L -1.90625 -39.9375 C -1.707031 -39.9375 -1.421875 -39.953125 -1.046875 -39.984375 C -0.671875 -40.023438 -0.28125 -40.046875 0.125 -40.046875 C 2.3125 -40.046875 4.289062 -39.546875 6.0625 -38.546875 C 7.84375 -37.554688 9.269531 -35.53125 10.34375 -32.46875 L 18.359375 -9.390625 L 24.75 -28.34375 L 23.3125 -32.46875 C 22.519531 -34.769531 21.671875 -36.347656 20.765625 -37.203125 C 19.867188 -38.066406 18.523438 -38.578125 16.734375 -38.734375 L 16.734375 -39.9375 C 16.929688 -39.9375 17.21875 -39.953125 17.59375 -39.984375 C 17.976562 -40.023438 18.367188 -40.046875 18.765625 -40.046875 C 20.960938 -40.046875 22.945312 -39.546875 24.71875 -38.546875 C 26.488281 -37.554688 27.914062 -35.53125 29 -32.46875 L 37 -9.390625 L 47.234375 -39.453125 L 49.796875 -39.453125 L 36.109375 0.59375 L 34.90625 0.59375 L 26.0625 -24.5625 L 17.453125 0.59375 L 16.265625 0.59375 Z M 4.65625 -32.46875 "/></g></g></g></svg>