<svg xmlns="http://www.w3.org/2000/svg" xmlns:xlink="http://www.w3.org/1999/xlink" width="500" zoomAndPan="magnify" viewBox="0 0 375 374.999991" height="500" preserveAspectRatio="xMidYMid meet" version="1.0"><defs><clipPath id="104b9af0a3"><path d="M 33.496094 0 L 342.355469 0 L 342.355469 374.996094 L 33.496094 374.996094 Z M 33.496094 0 " clip-rule="nonzero"/></clipPath><clipPath id="5ef7649c67"><path d="M 57.589844 55 L 317.3125 55 L 317.3125 343.46875 L 57.589844 343.46875 Z M 57.589844 55 " clip-rule="nonzero"/></clipPath></defs><g clip-path="url(#104b9af0a3)"><path fill="#7cb245" d="M 187.988281 -0.9375 L 240.34375 33.347656 L 342.355469 100.050781 L 342.355469 375.40625 L 33.496094 375.40625 L 33.496094 100.109375 L 135.511719 33.40625 Z M 333.359375 104.984375 L 235.425781 40.925781 L 187.988281 9.828125 L 140.367188 40.925781 L 42.433594 104.984375 L 42.433594 366.386719 L 333.300781 366.386719 L 333.300781 104.984375 Z M 333.359375 104.984375 " fill-opacity="1" fill-rule="nonzero"/></g><g clip-path="url(#5ef7649c67)"><path fill="#7cb245" d="M 317.265625 216.972656 C 317.296875 219.871094 317.050781 222.765625 316.886719 225.664062 C 316.804688 227.113281 316.585938 228.550781 316.441406 229.996094 C 316.273438 231.441406 316.144531 232.890625 315.882812 234.316406 C 312.542969 257.347656 302.457031 279.390625 287.386719 297.324219 C 272.335938 315.269531 252.253906 329.15625 229.808594 336.621094 C 224.195312 338.4375 218.484375 340.046875 212.65625 341.070312 L 210.472656 341.492188 C 209.746094 341.632812 209.011719 341.710938 208.28125 341.824219 L 203.882812 342.449219 L 199.457031 342.859375 L 197.242188 343.058594 L 195.027344 343.15625 L 190.578125 343.332031 L 186.132812 343.292969 L 183.90625 343.269531 C 183.164062 343.242188 182.425781 343.1875 181.683594 343.144531 L 177.238281 342.871094 L 172.808594 342.378906 L 170.59375 342.128906 L 168.394531 341.769531 L 163.988281 341.035156 L 159.625 340.097656 C 136.382812 334.839844 114.601562 322.980469 97.414062 306.214844 C 80.203125 289.476562 67.648438 267.847656 61.695312 244.371094 L 60.621094 239.957031 L 59.757812 235.5 C 59.621094 234.753906 59.453125 234.011719 59.34375 233.265625 L 59.023438 231.015625 C 58.820312 229.515625 58.578125 228.015625 58.414062 226.511719 C 58.164062 223.496094 57.789062 220.476562 57.734375 217.445312 C 57.6875 215.933594 57.589844 214.414062 57.585938 212.898438 L 57.644531 208.347656 C 57.851562 196.207031 59.890625 184.082031 63.449219 172.414062 C 66.949219 160.714844 72.28125 149.585938 78.863281 139.273438 C 79.644531 137.957031 80.566406 136.730469 81.429688 135.464844 C 82.320312 134.21875 83.15625 132.933594 84.09375 131.726562 C 85.992188 129.328125 87.796875 126.839844 89.859375 124.566406 C 90.867188 123.414062 91.859375 122.242188 92.890625 121.109375 C 93.640625 120.332031 94.222656 119.410156 94.628906 118.40625 C 120.257812 55.238281 209.242188 31.222656 277.671875 86.082031 C 278.734375 86.933594 278.179688 88.652344 276.820312 88.707031 C 253.9375 89.628906 237.664062 109.78125 214.367188 127.824219 C 189.679688 146.945312 157.109375 163.691406 100.445312 152.660156 C 100.21875 152.621094 99.996094 152.570312 99.777344 152.519531 C 97.429688 151.941406 96.726562 148.949219 98.621094 147.445312 C 100.621094 145.867188 102.644531 144.3125 104.691406 142.777344 C 109.832031 138.933594 115.117188 135.234375 120.492188 131.664062 C 123.179688 129.875 125.894531 128.121094 128.628906 126.394531 C 131.363281 124.675781 134.121094 122.988281 136.898438 121.332031 C 142.453125 118.007812 148.09375 114.828125 153.8125 111.792969 C 159.535156 108.757812 165.34375 105.878906 171.246094 103.203125 C 177.148438 100.523438 183.148438 98.050781 189.277344 95.921875 C 192.339844 94.855469 195.4375 93.882812 198.578125 93.046875 C 200.328125 92.578125 202.085938 92.15625 203.855469 91.78125 C 204.066406 91.738281 204.011719 91.429688 203.800781 91.457031 C 202 91.691406 200.203125 91.984375 198.410156 92.316406 C 195.195312 92.917969 192.003906 93.652344 188.84375 94.488281 C 182.507812 96.152344 176.273438 98.183594 170.113281 100.425781 C 163.957031 102.667969 157.875 105.121094 151.867188 107.746094 C 145.851562 110.367188 139.90625 113.144531 134.03125 116.066406 C 131.089844 117.53125 128.167969 119.027344 125.261719 120.558594 C 122.355469 122.09375 119.464844 123.664062 116.59375 125.265625 C 112.695312 127.449219 108.832031 129.699219 105.003906 132.027344 L 104.71875 132.308594 C 103.78125 133.273438 102.882812 134.285156 101.964844 135.273438 C 100.078125 137.210938 98.441406 139.359375 96.691406 141.417969 C 95.832031 142.460938 95.066406 143.578125 94.246094 144.652344 C 93.449219 145.742188 92.597656 146.796875 91.875 147.941406 C 85.796875 156.875 80.753906 166.585938 77.335938 176.894531 C 73.859375 187.175781 71.691406 197.945312 71.183594 208.859375 L 71.003906 212.953125 C 70.964844 214.316406 71.015625 215.683594 71.019531 217.050781 C 70.976562 219.789062 71.242188 222.511719 71.378906 225.242188 C 71.484375 226.605469 71.671875 227.960938 71.8125 229.320312 L 72.035156 231.363281 C 72.113281 232.039062 72.246094 232.714844 72.347656 233.390625 L 73.003906 237.441406 L 73.859375 241.457031 C 78.597656 262.847656 89.40625 282.953125 104.792969 298.851562 C 120.15625 314.765625 140.003906 326.417969 161.589844 331.992188 L 165.648438 332.996094 L 169.75 333.804688 L 171.804688 334.207031 L 173.875 334.5 L 178.023438 335.089844 L 182.195312 335.46875 C 182.890625 335.53125 183.585938 335.609375 184.285156 335.65625 L 186.378906 335.738281 L 190.570312 335.90625 L 194.769531 335.863281 L 196.871094 335.835938 L 198.964844 335.710938 L 203.160156 335.445312 L 207.335938 334.980469 C 208.03125 334.898438 208.734375 334.839844 209.421875 334.734375 L 211.5 334.394531 C 217.054688 333.597656 222.511719 332.222656 227.90625 330.660156 C 249.453125 324.214844 269.148438 311.519531 284.238281 294.59375 C 299.335938 277.691406 309.859375 256.523438 313.824219 233.976562 C 314.128906 232.582031 314.296875 231.160156 314.503906 229.742188 C 314.691406 228.324219 314.945312 226.914062 315.070312 225.492188 C 315.320312 222.640625 315.648438 219.792969 315.699219 216.925781 C 315.839844 214.0625 315.910156 211.199219 315.8125 208.328125 C 315.742188 205.460938 315.582031 202.59375 315.304688 199.738281 C 314.246094 188.304688 311.609375 176.992188 307.453125 166.238281 C 311.929688 176.863281 314.925781 188.132812 316.339844 199.625 C 316.707031 202.5 316.957031 205.382812 317.113281 208.277344 C 317.296875 211.171875 317.316406 214.070312 317.265625 216.972656 " fill-opacity="1" fill-rule="nonzero"/></g></svg>