<svg xmlns="http://www.w3.org/2000/svg" xmlns:xlink="http://www.w3.org/1999/xlink" width="500" zoomAndPan="magnify" viewBox="0 0 375 374.999991" height="500" preserveAspectRatio="xMidYMid meet" version="1.0"><defs><clipPath id="f06a759eae"><path d="M 33.324219 0 L 342.183594 0 L 342.183594 374.996094 L 33.324219 374.996094 Z M 33.324219 0 " clip-rule="nonzero"/></clipPath><clipPath id="4c8cc291dd"><path d="M 57.417969 55 L 317.140625 55 L 317.140625 343.46875 L 57.417969 343.46875 Z M 57.417969 55 " clip-rule="nonzero"/></clipPath></defs><g clip-path="url(#f06a759eae)"><path fill="#ffffff" d="M 187.8125 -0.9375 L 240.167969 33.347656 L 342.183594 100.050781 L 342.183594 375.40625 L 33.324219 375.40625 L 33.324219 100.109375 L 135.335938 33.40625 Z M 333.1875 104.984375 L 235.25 40.925781 L 187.8125 9.828125 L 140.195312 40.925781 L 42.261719 104.984375 L 42.261719 366.386719 L 333.125 366.386719 L 333.125 104.984375 Z M 333.1875 104.984375 " fill-opacity="1" fill-rule="nonzero"/></g><g clip-path="url(#4c8cc291dd)"><path fill="#ffffff" d="M 317.089844 216.972656 C 317.125 219.871094 316.878906 222.765625 316.714844 225.664062 C 316.628906 227.113281 316.414062 228.550781 316.269531 229.996094 C 316.101562 231.441406 315.972656 232.890625 315.707031 234.316406 C 312.371094 257.347656 302.285156 279.390625 287.214844 297.324219 C 272.164062 315.269531 252.078125 329.15625 229.636719 336.621094 C 224.019531 338.4375 218.3125 340.046875 212.480469 341.070312 L 210.300781 341.492188 C 209.574219 341.632812 208.839844 341.710938 208.105469 341.824219 L 203.707031 342.449219 L 199.285156 342.859375 L 197.070312 343.058594 L 194.851562 343.15625 L 190.40625 343.332031 L 185.957031 343.292969 L 183.734375 343.269531 C 182.992188 343.242188 182.253906 343.1875 181.511719 343.144531 L 177.066406 342.871094 L 172.636719 342.378906 L 170.417969 342.128906 L 168.21875 341.769531 L 163.816406 341.035156 L 159.453125 340.097656 C 136.210938 334.839844 114.429688 322.980469 97.238281 306.214844 C 80.027344 289.476562 67.472656 267.847656 61.519531 244.371094 L 60.445312 239.957031 L 59.582031 235.5 C 59.449219 234.753906 59.28125 234.011719 59.171875 233.265625 L 58.851562 231.015625 C 58.648438 229.515625 58.402344 228.015625 58.238281 226.511719 C 57.988281 223.496094 57.613281 220.476562 57.5625 217.445312 C 57.511719 215.933594 57.414062 214.414062 57.410156 212.898438 L 57.46875 208.347656 C 57.675781 196.207031 59.71875 184.082031 63.273438 172.414062 C 66.773438 160.714844 72.109375 149.585938 78.6875 139.273438 C 79.472656 137.957031 80.390625 136.730469 81.257812 135.464844 C 82.144531 134.21875 82.984375 132.933594 83.917969 131.726562 C 85.820312 129.328125 87.625 126.839844 89.6875 124.566406 C 90.695312 123.414062 91.683594 122.242188 92.714844 121.109375 C 93.464844 120.332031 94.046875 119.410156 94.453125 118.40625 C 120.085938 55.238281 209.070312 31.222656 277.5 86.078125 C 278.5625 86.933594 278.003906 88.652344 276.644531 88.707031 C 253.765625 89.628906 237.492188 109.78125 214.191406 127.824219 C 189.503906 146.945312 156.9375 163.691406 100.269531 152.660156 C 100.046875 152.621094 99.824219 152.570312 99.605469 152.519531 C 97.257812 151.941406 96.554688 148.949219 98.449219 147.445312 C 100.445312 145.867188 102.472656 144.3125 104.515625 142.777344 C 109.65625 138.933594 114.941406 135.234375 120.320312 131.664062 C 123.007812 129.875 125.71875 128.121094 128.453125 126.394531 C 131.191406 124.675781 133.945312 122.988281 136.722656 121.332031 C 142.28125 118.007812 147.917969 114.828125 153.640625 111.792969 C 159.359375 108.757812 165.171875 105.878906 171.070312 103.203125 C 176.972656 100.523438 182.972656 98.050781 189.101562 95.921875 C 192.167969 94.855469 195.265625 93.882812 198.40625 93.046875 C 200.152344 92.578125 201.910156 92.15625 203.683594 91.78125 C 203.890625 91.738281 203.835938 91.429688 203.628906 91.457031 C 201.824219 91.691406 200.03125 91.984375 198.238281 92.316406 C 195.023438 92.917969 191.832031 93.652344 188.667969 94.488281 C 182.335938 96.152344 176.097656 98.183594 169.941406 100.425781 C 163.785156 102.667969 157.699219 105.121094 151.691406 107.746094 C 145.679688 110.367188 139.734375 113.144531 133.855469 116.066406 C 130.917969 117.53125 127.992188 119.027344 125.085938 120.558594 C 122.179688 122.09375 119.292969 123.664062 116.421875 125.265625 C 112.523438 127.445312 108.660156 129.699219 104.832031 132.027344 L 104.542969 132.308594 C 103.605469 133.273438 102.710938 134.285156 101.789062 135.269531 C 99.90625 137.210938 98.265625 139.359375 96.515625 141.417969 C 95.660156 142.460938 94.890625 143.578125 94.070312 144.652344 C 93.277344 145.742188 92.421875 146.796875 91.703125 147.941406 C 85.625 156.875 80.578125 166.585938 77.160156 176.894531 C 73.6875 187.175781 71.515625 197.945312 71.007812 208.859375 L 70.832031 212.953125 C 70.789062 214.316406 70.84375 215.683594 70.84375 217.050781 C 70.800781 219.789062 71.070312 222.511719 71.207031 225.242188 C 71.3125 226.605469 71.496094 227.960938 71.636719 229.320312 L 71.863281 231.363281 C 71.9375 232.039062 72.074219 232.714844 72.175781 233.390625 L 72.832031 237.441406 L 73.683594 241.457031 C 78.425781 262.847656 89.234375 282.953125 104.621094 298.851562 C 119.984375 314.765625 139.832031 326.417969 161.417969 331.992188 L 165.472656 332.996094 L 169.578125 333.804688 L 171.632812 334.207031 L 173.703125 334.5 L 177.847656 335.085938 L 182.023438 335.46875 C 182.71875 335.53125 183.414062 335.609375 184.109375 335.65625 L 186.203125 335.738281 L 190.398438 335.90625 L 194.597656 335.863281 L 196.699219 335.835938 L 198.792969 335.710938 L 202.984375 335.445312 L 207.164062 334.980469 C 207.855469 334.898438 208.558594 334.839844 209.25 334.734375 L 211.328125 334.394531 C 216.882812 333.597656 222.339844 332.222656 227.734375 330.660156 C 249.28125 324.214844 268.976562 311.519531 284.0625 294.59375 C 299.160156 277.691406 309.6875 256.523438 313.648438 233.976562 C 313.953125 232.582031 314.121094 231.160156 314.328125 229.742188 C 314.515625 228.324219 314.769531 226.914062 314.898438 225.492188 C 315.144531 222.640625 315.476562 219.792969 315.527344 216.925781 C 315.664062 214.0625 315.734375 211.199219 315.636719 208.328125 C 315.570312 205.460938 315.40625 202.59375 315.132812 199.738281 C 314.070312 188.304688 311.433594 176.992188 307.28125 166.238281 C 311.753906 176.863281 314.753906 188.132812 316.167969 199.625 C 316.53125 202.5 316.78125 205.382812 316.9375 208.277344 C 317.125 211.171875 317.144531 214.070312 317.089844 216.972656 " fill-opacity="1" fill-rule="nonzero"/></g></svg>