<svg xmlns="http://www.w3.org/2000/svg" xmlns:xlink="http://www.w3.org/1999/xlink" width="500" zoomAndPan="magnify" viewBox="0 0 375 374.999991" height="500" preserveAspectRatio="xMidYMid meet" version="1.0"><defs><clipPath id="7a357ea8f2"><path d="M 31.722656 29 L 343.722656 29 L 343.722656 375 L 31.722656 375 Z M 31.722656 29 " clip-rule="nonzero"/></clipPath></defs><g clip-path="url(#7a357ea8f2)"><path fill="#7cb245" d="M 343.667969 223.136719 C 343.707031 226.617188 343.410156 230.09375 343.210938 233.574219 C 343.109375 235.3125 342.851562 237.039062 342.679688 238.773438 C 342.476562 240.507812 342.320312 242.25 342.003906 243.960938 C 337.992188 271.609375 325.878906 298.070312 307.773438 319.601562 C 289.695312 341.144531 265.566406 357.8125 238.609375 366.773438 C 231.863281 368.953125 225.003906 370.886719 218 372.117188 L 215.378906 372.621094 C 214.507812 372.789062 213.625 372.886719 212.746094 373.019531 L 207.460938 373.769531 L 202.148438 374.261719 L 199.488281 374.503906 L 196.820312 374.617188 L 191.480469 374.832031 L 186.136719 374.785156 L 183.464844 374.753906 C 182.574219 374.722656 181.6875 374.65625 180.796875 374.605469 L 175.457031 374.277344 L 170.132812 373.683594 L 167.472656 373.386719 L 164.828125 372.953125 L 159.539062 372.074219 L 154.296875 370.945312 C 126.375 364.636719 100.210938 350.398438 79.5625 330.273438 C 58.886719 310.175781 43.804688 284.214844 36.652344 256.03125 L 35.363281 250.734375 L 34.328125 245.378906 C 34.164062 244.484375 33.960938 243.597656 33.832031 242.699219 L 33.445312 240 C 33.203125 238.195312 32.90625 236.398438 32.710938 234.59375 C 32.410156 230.96875 31.960938 227.347656 31.898438 223.707031 C 31.839844 221.890625 31.71875 220.070312 31.714844 218.25 L 31.785156 212.785156 C 32.035156 198.210938 34.488281 183.652344 38.761719 169.648438 C 42.964844 155.605469 49.375 142.246094 57.277344 129.863281 C 58.21875 128.28125 59.324219 126.8125 60.359375 125.292969 C 61.429688 123.796875 62.4375 122.253906 63.558594 120.804688 C 65.84375 117.921875 68.011719 114.9375 70.488281 112.210938 C 71.699219 110.824219 72.886719 109.417969 74.125 108.058594 C 75.027344 107.125 75.726562 106.015625 76.214844 104.8125 C 107.007812 28.984375 213.902344 0.152344 296.101562 66.007812 C 297.378906 67.03125 296.714844 69.097656 295.078125 69.160156 C 267.59375 70.269531 248.042969 94.460938 220.054688 116.121094 C 190.398438 139.074219 151.277344 159.175781 83.203125 145.9375 C 82.933594 145.886719 82.667969 145.824219 82.402344 145.765625 C 79.582031 145.070312 78.738281 141.480469 81.015625 139.675781 C 83.414062 137.78125 85.847656 135.914062 88.304688 134.070312 C 94.480469 129.453125 100.828125 125.011719 107.285156 120.726562 C 110.515625 118.582031 113.773438 116.476562 117.058594 114.40625 C 120.347656 112.339844 123.65625 110.3125 126.992188 108.324219 C 133.667969 104.335938 140.441406 100.519531 147.316406 96.875 C 154.1875 93.230469 161.167969 89.777344 168.253906 86.5625 C 175.34375 83.34375 182.550781 80.375 189.914062 77.820312 C 193.597656 76.542969 197.320312 75.375 201.089844 74.371094 C 203.1875 73.808594 205.300781 73.300781 207.429688 72.851562 C 207.679688 72.796875 207.617188 72.425781 207.363281 72.460938 C 205.199219 72.746094 203.042969 73.09375 200.886719 73.496094 C 197.027344 74.214844 193.195312 75.097656 189.394531 76.101562 C 181.785156 78.101562 174.292969 80.539062 166.898438 83.226562 C 159.5 85.921875 152.191406 88.863281 144.972656 92.015625 C 137.75 95.160156 130.609375 98.496094 123.546875 102.003906 C 120.019531 103.761719 116.507812 105.558594 113.011719 107.398438 C 109.523438 109.238281 106.054688 111.125 102.601562 113.050781 C 97.921875 115.667969 93.28125 118.371094 88.679688 121.164062 L 88.335938 121.5 C 87.210938 122.664062 86.132812 123.875 85.027344 125.058594 C 82.765625 127.390625 80.796875 129.964844 78.691406 132.4375 C 77.664062 133.691406 76.742188 135.03125 75.757812 136.320312 C 74.800781 137.628906 73.773438 138.894531 72.910156 140.269531 C 65.609375 150.992188 59.546875 162.652344 55.441406 175.027344 C 51.269531 187.371094 48.660156 200.300781 48.050781 213.402344 L 47.835938 218.3125 C 47.789062 219.949219 47.851562 221.589844 47.851562 223.234375 C 47.800781 226.519531 48.125 229.789062 48.289062 233.066406 C 48.414062 234.703125 48.636719 236.328125 48.804688 237.960938 L 49.074219 240.414062 C 49.167969 241.226562 49.328125 242.035156 49.453125 242.847656 L 50.242188 247.714844 L 51.265625 252.53125 C 56.960938 278.210938 69.945312 302.347656 88.429688 321.433594 C 106.882812 340.539062 130.726562 354.523438 156.65625 361.21875 L 161.53125 362.421875 L 168.925781 363.875 L 171.414062 364.226562 L 176.394531 364.933594 L 181.410156 365.390625 C 182.246094 365.464844 183.082031 365.558594 183.917969 365.613281 L 186.433594 365.714844 L 191.472656 365.914062 L 196.515625 365.863281 L 199.039062 365.832031 L 201.554688 365.679688 L 206.59375 365.363281 L 211.613281 364.804688 C 212.445312 364.703125 213.289062 364.636719 214.117188 364.507812 L 216.613281 364.101562 C 223.285156 363.140625 229.84375 361.496094 236.320312 359.617188 C 262.207031 351.878906 285.867188 336.636719 303.988281 316.324219 C 322.125 296.03125 334.773438 270.617188 339.53125 243.550781 C 339.898438 241.878906 340.101562 240.171875 340.347656 238.472656 C 340.574219 236.769531 340.878906 235.074219 341.03125 233.367188 C 341.328125 229.941406 341.726562 226.527344 341.789062 223.082031 C 341.953125 219.648438 342.035156 216.207031 341.921875 212.765625 C 341.835938 209.320312 341.644531 205.878906 341.3125 202.453125 C 340.039062 188.726562 336.871094 175.144531 331.878906 162.230469 C 337.257812 174.988281 340.859375 188.519531 342.554688 202.3125 C 342.996094 205.761719 343.296875 209.226562 343.484375 212.703125 C 343.707031 216.175781 343.726562 219.65625 343.667969 223.136719 " fill-opacity="1" fill-rule="nonzero"/></g></svg>