<svg xmlns="http://www.w3.org/2000/svg" xmlns:xlink="http://www.w3.org/1999/xlink" width="500" zoomAndPan="magnify" viewBox="0 0 375 374.999991" height="500" preserveAspectRatio="xMidYMid meet" version="1.0"><defs><clipPath id="0887e9f29a"><path d="M 31.550781 29 L 343.550781 29 L 343.550781 375 L 31.550781 375 Z M 31.550781 29 " clip-rule="nonzero"/></clipPath></defs><g clip-path="url(#0887e9f29a)"><path fill="#ffffff" d="M 343.492188 223.136719 C 343.53125 226.617188 343.234375 230.09375 343.039062 233.574219 C 342.9375 235.3125 342.679688 237.039062 342.503906 238.773438 C 342.300781 240.507812 342.148438 242.25 341.832031 243.960938 C 337.820312 271.609375 325.707031 298.070312 307.601562 319.601562 C 289.519531 341.144531 265.394531 357.8125 238.433594 366.773438 C 231.6875 368.953125 224.832031 370.886719 217.828125 372.117188 L 215.207031 372.621094 C 214.332031 372.789062 213.449219 372.886719 212.570312 373.019531 L 207.289062 373.769531 L 201.972656 374.261719 L 199.3125 374.503906 L 196.648438 374.617188 L 191.308594 374.832031 L 185.964844 374.785156 L 183.292969 374.753906 C 182.402344 374.722656 181.511719 374.65625 180.621094 374.605469 L 175.28125 374.277344 L 169.960938 373.683594 L 167.296875 373.386719 L 164.65625 372.953125 L 159.367188 372.074219 L 154.121094 370.945312 C 126.203125 364.636719 100.039062 350.398438 79.386719 330.273438 C 58.710938 310.175781 43.628906 284.214844 36.480469 256.03125 L 35.1875 250.734375 L 34.152344 245.378906 C 33.988281 244.484375 33.789062 243.597656 33.65625 242.699219 L 33.273438 240 C 33.027344 238.195312 32.734375 236.398438 32.539062 234.59375 C 32.238281 230.96875 31.785156 227.347656 31.722656 223.707031 C 31.664062 221.890625 31.546875 220.070312 31.542969 218.25 L 31.613281 212.785156 C 31.859375 198.210938 34.316406 183.652344 38.585938 169.648438 C 42.789062 155.605469 49.199219 142.246094 57.105469 129.863281 C 58.042969 128.28125 59.148438 126.8125 60.1875 125.292969 C 61.257812 123.796875 62.261719 122.253906 63.386719 120.804688 C 65.671875 117.921875 67.835938 114.9375 70.3125 112.210938 C 71.527344 110.824219 72.714844 109.417969 73.953125 108.058594 C 74.855469 107.125 75.554688 106.015625 76.042969 104.8125 C 106.832031 28.984375 213.726562 0.152344 295.929688 66.007812 C 297.207031 67.03125 296.539062 69.097656 294.90625 69.160156 C 267.417969 70.269531 247.871094 94.460938 219.882812 116.121094 C 190.226562 139.074219 151.101562 159.175781 83.03125 145.9375 C 82.757812 145.886719 82.492188 145.824219 82.226562 145.765625 C 79.410156 145.070312 78.566406 141.480469 80.839844 139.675781 C 83.238281 137.78125 85.671875 135.914062 88.128906 134.070312 C 94.304688 129.453125 100.652344 125.011719 107.113281 120.726562 C 110.34375 118.582031 113.601562 116.476562 116.886719 114.40625 C 120.171875 112.339844 123.484375 110.3125 126.820312 108.324219 C 133.492188 104.335938 140.269531 100.519531 147.140625 96.875 C 154.011719 93.230469 160.992188 89.777344 168.082031 86.5625 C 175.171875 83.34375 182.378906 80.375 189.742188 77.820312 C 193.425781 76.542969 197.144531 75.375 200.917969 74.371094 C 203.015625 73.808594 205.128906 73.300781 207.253906 72.851562 C 207.507812 72.796875 207.441406 72.425781 207.191406 72.460938 C 205.023438 72.746094 202.867188 73.09375 200.714844 73.496094 C 196.855469 74.214844 193.019531 75.097656 189.21875 76.101562 C 181.613281 78.101562 174.121094 80.539062 166.722656 83.226562 C 159.328125 85.921875 152.019531 88.863281 144.800781 92.015625 C 137.578125 95.160156 130.4375 98.496094 123.375 102.003906 C 119.84375 103.761719 116.332031 105.558594 112.839844 107.398438 C 109.351562 109.238281 105.878906 111.125 102.429688 113.050781 C 97.746094 115.667969 93.105469 118.371094 88.507812 121.164062 L 88.160156 121.5 C 87.035156 122.664062 85.960938 123.875 84.851562 125.058594 C 82.589844 127.390625 80.621094 129.964844 78.519531 132.4375 C 77.488281 133.691406 76.566406 135.03125 75.582031 136.320312 C 74.625 137.628906 73.601562 138.894531 72.738281 140.269531 C 65.433594 150.992188 59.375 162.652344 55.269531 175.027344 C 51.09375 187.371094 48.488281 200.300781 47.878906 213.402344 L 47.664062 218.3125 C 47.613281 219.949219 47.679688 221.589844 47.679688 223.234375 C 47.628906 226.519531 47.949219 229.789062 48.113281 233.066406 C 48.242188 234.703125 48.464844 236.328125 48.632812 237.960938 L 48.902344 240.414062 C 48.992188 241.226562 49.15625 242.035156 49.277344 242.847656 L 50.066406 247.714844 L 51.09375 252.53125 C 56.785156 278.210938 69.773438 302.347656 88.253906 321.433594 C 106.707031 340.539062 130.554688 354.523438 156.484375 361.21875 L 161.355469 362.421875 L 166.285156 363.390625 L 168.753906 363.875 L 171.242188 364.226562 L 176.222656 364.933594 L 181.234375 365.390625 C 182.070312 365.464844 182.90625 365.558594 183.742188 365.613281 L 186.261719 365.714844 L 191.296875 365.914062 L 196.339844 365.863281 L 198.863281 365.832031 L 201.382812 365.679688 L 206.417969 365.363281 L 211.4375 364.804688 C 212.269531 364.703125 213.113281 364.636719 213.945312 364.507812 L 216.441406 364.101562 C 223.113281 363.140625 229.667969 361.496094 236.148438 359.617188 C 262.035156 351.878906 285.691406 336.636719 303.816406 316.324219 C 321.953125 296.03125 334.597656 270.617188 339.355469 243.550781 C 339.726562 241.878906 339.925781 240.171875 340.175781 238.472656 C 340.398438 236.769531 340.703125 235.074219 340.855469 233.367188 C 341.15625 229.941406 341.554688 226.527344 341.613281 223.082031 C 341.78125 219.648438 341.863281 216.207031 341.746094 212.765625 C 341.664062 209.320312 341.46875 205.878906 341.140625 202.453125 C 339.867188 188.726562 336.695312 175.144531 331.707031 162.230469 C 337.082031 174.988281 340.683594 188.519531 342.382812 202.3125 C 342.820312 205.761719 343.121094 209.226562 343.308594 212.703125 C 343.53125 216.175781 343.554688 219.65625 343.492188 223.136719 " fill-opacity="1" fill-rule="nonzero"/></g></svg>