<svg xmlns="http://www.w3.org/2000/svg" xmlns:xlink="http://www.w3.org/1999/xlink" width="500" zoomAndPan="magnify" viewBox="0 0 375 374.999991" height="500" preserveAspectRatio="xMidYMid meet" version="1.0"><defs><g/></defs><g fill="#ffffff" fill-opacity="1"><g transform="translate(28.144716, 182.731259)"><g><path d="M 12.921875 -65.796875 C 12.921875 -69.941406 12.347656 -73.007812 11.203125 -75 C 10.066406 -76.988281 7.796875 -77.984375 4.390625 -77.984375 L 1.953125 -77.984375 L 1.953125 -80.421875 L 12.921875 -80.421875 C 15.921875 -80.421875 18.171875 -80.035156 19.671875 -79.265625 C 21.179688 -78.492188 22.257812 -77.09375 22.90625 -75.0625 C 23.550781 -73.03125 23.875 -69.941406 23.875 -65.796875 L 23.875 -43.859375 L 60.4375 -43.859375 L 60.4375 -80.421875 L 71.40625 -80.421875 L 71.40625 -14.625 C 71.40625 -10.476562 71.972656 -7.410156 73.109375 -5.421875 C 74.242188 -3.429688 76.515625 -2.4375 79.921875 -2.4375 L 82.359375 -2.4375 L 82.359375 0 L 71.40625 0 C 68.394531 0 66.140625 -0.382812 64.640625 -1.15625 C 63.140625 -1.925781 62.0625 -3.328125 61.40625 -5.359375 C 60.757812 -7.390625 60.4375 -10.476562 60.4375 -14.625 L 60.4375 -38.984375 L 23.875 -38.984375 L 23.875 0 L 12.921875 0 Z M 12.921875 -65.796875 "/></g></g></g><g fill="#ffffff" fill-opacity="1"><g transform="translate(103.066263, 182.731259)"><g><path d="M 43.375 2.4375 C 35.820312 2.4375 29.179688 0.570312 23.453125 -3.15625 C 17.722656 -6.894531 13.316406 -12.015625 10.234375 -18.515625 C 7.148438 -25.015625 5.609375 -32.242188 5.609375 -40.203125 C 5.609375 -48.171875 7.148438 -55.398438 10.234375 -61.890625 C 13.316406 -68.390625 17.722656 -73.507812 23.453125 -77.25 C 29.179688 -80.988281 35.820312 -82.859375 43.375 -82.859375 C 50.925781 -82.859375 57.566406 -80.988281 63.296875 -77.25 C 69.023438 -73.507812 73.429688 -68.390625 76.515625 -61.890625 C 79.597656 -55.398438 81.140625 -48.171875 81.140625 -40.203125 C 81.140625 -32.242188 79.597656 -25.015625 76.515625 -18.515625 C 73.429688 -12.015625 69.023438 -6.894531 63.296875 -3.15625 C 57.566406 0.570312 50.925781 2.4375 43.375 2.4375 Z M 43.375 -2.4375 C 48.65625 -2.4375 53.222656 -3.976562 57.078125 -7.0625 C 60.941406 -10.15625 63.890625 -14.523438 65.921875 -20.171875 C 67.953125 -25.816406 68.96875 -32.492188 68.96875 -40.203125 C 68.96875 -47.921875 67.953125 -54.601562 65.921875 -60.25 C 63.890625 -65.894531 60.941406 -70.257812 57.078125 -73.34375 C 53.222656 -76.4375 48.65625 -77.984375 43.375 -77.984375 C 38.09375 -77.984375 33.519531 -76.4375 29.65625 -73.34375 C 25.800781 -70.257812 22.859375 -65.894531 20.828125 -60.25 C 18.804688 -54.601562 17.796875 -47.921875 17.796875 -40.203125 C 17.796875 -32.492188 18.804688 -25.816406 20.828125 -20.171875 C 22.859375 -14.523438 25.800781 -10.15625 29.65625 -7.0625 C 33.519531 -3.976562 38.09375 -2.4375 43.375 -2.4375 Z M 43.375 -2.4375 "/></g></g></g><g fill="#ffffff" fill-opacity="1"><g transform="translate(180.302522, 182.731259)"><g><path d="M 102.46875 5.484375 C 96.625 5.484375 92.078125 4.585938 88.828125 2.796875 C 85.578125 1.015625 83.28125 -1.757812 81.9375 -5.53125 C 80.59375 -9.3125 79.921875 -14.375 79.921875 -20.71875 L 79.921875 -67.625 L 49.46875 0 L 47.03125 0 L 15.359375 -68.84375 L 15.359375 0 L 10.484375 0 L 10.484375 -80.421875 L 22.046875 -80.421875 L 51.296875 -17.0625 L 79.921875 -80.421875 L 90.890625 -80.421875 L 90.890625 -20.71875 C 90.890625 -13.15625 91.84375 -7.300781 93.75 -3.15625 C 95.664062 0.976562 98.570312 3.046875 102.46875 3.046875 Z M 102.46875 5.484375 "/></g></g></g><g fill="#ffffff" fill-opacity="1"><g transform="translate(274.959984, 182.731259)"><g><path d="M 12.921875 -65.796875 C 12.921875 -69.941406 12.347656 -73.007812 11.203125 -75 C 10.066406 -76.988281 7.796875 -77.984375 4.390625 -77.984375 L 1.953125 -77.984375 L 1.953125 -80.421875 L 53.859375 -80.421875 C 60.765625 -80.421875 64.21875 -77.171875 64.21875 -70.671875 L 64.21875 -61.53125 L 61.78125 -61.53125 C 61.78125 -70.875 56.703125 -75.546875 46.546875 -75.546875 L 23.875 -75.546875 L 23.875 -43.859375 L 56.78125 -43.859375 L 56.78125 -38.984375 L 23.875 -38.984375 L 23.875 -4.875 L 45.203125 -4.875 C 50.804688 -4.875 55.191406 -5.890625 58.359375 -7.921875 C 61.523438 -9.953125 64.046875 -13.40625 65.921875 -18.28125 L 68.359375 -17.671875 L 64.09375 -6.09375 C 62.625 -2.03125 59.578125 0 54.953125 0 L 12.921875 0 Z M 12.921875 -65.796875 "/></g></g></g><g fill="#ffffff" fill-opacity="1"><g transform="translate(25.536809, 278.106131)"><g><path d="M 46.78125 2.4375 C 38.820312 2.4375 31.695312 0.488281 25.40625 -3.40625 C 19.113281 -7.3125 14.195312 -12.613281 10.65625 -19.3125 C 7.125 -26.007812 5.359375 -33.378906 5.359375 -41.421875 C 5.359375 -49.140625 6.898438 -56.144531 9.984375 -62.4375 C 13.078125 -68.738281 17.484375 -73.71875 23.203125 -77.375 C 28.929688 -81.03125 35.570312 -82.859375 43.125 -82.859375 C 50.113281 -82.859375 56.144531 -81.941406 61.21875 -80.109375 C 66.300781 -78.285156 70.019531 -75.953125 72.375 -73.109375 C 73.675781 -71.484375 74.507812 -69.328125 74.875 -66.640625 C 75.238281 -63.960938 75.421875 -60.632812 75.421875 -56.65625 L 72.984375 -56.65625 C 71.441406 -63.800781 68.515625 -69.140625 64.203125 -72.671875 C 59.898438 -76.210938 54.09375 -77.984375 46.78125 -77.984375 C 40.207031 -77.984375 34.726562 -76.253906 30.34375 -72.796875 C 25.957031 -69.347656 22.726562 -64.859375 20.65625 -59.328125 C 18.582031 -53.804688 17.546875 -47.835938 17.546875 -41.421875 C 17.546875 -27.691406 20.222656 -17.757812 25.578125 -11.625 C 30.941406 -5.5 38.007812 -2.4375 46.78125 -2.4375 C 50.925781 -2.4375 54.460938 -2.800781 57.390625 -3.53125 C 60.316406 -4.257812 63.078125 -5.316406 65.671875 -6.703125 L 65.671875 -27.90625 C 65.671875 -30.664062 66.117188 -33.0625 67.015625 -35.09375 C 67.910156 -37.125 69.835938 -38.804688 72.796875 -40.140625 C 75.765625 -41.484375 80.09375 -42.15625 85.78125 -42.15625 L 85.78125 -39.71875 C 82.125 -39.71875 79.6875 -38.78125 78.46875 -36.90625 C 77.25 -35.039062 76.640625 -32.117188 76.640625 -28.140625 L 76.640625 -5.234375 C 72.253906 -2.554688 67.664062 -0.609375 62.875 0.609375 C 58.082031 1.828125 52.71875 2.4375 46.78125 2.4375 Z M 46.78125 2.4375 "/></g></g></g><g fill="#ffffff" fill-opacity="1"><g transform="translate(103.747676, 278.106131)"><g><path d="M 66.53125 1.21875 C 62.21875 1.21875 58.457031 -0.0546875 55.25 -2.609375 C 52.039062 -5.171875 48.488281 -9.785156 44.59375 -16.453125 L 32.40625 -37.15625 L 23.875 -37.15625 L 23.875 0 L 12.921875 0 L 12.921875 -65.796875 C 12.921875 -69.941406 12.347656 -73.007812 11.203125 -75 C 10.066406 -76.988281 7.796875 -77.984375 4.390625 -77.984375 L 1.953125 -77.984375 L 1.953125 -80.421875 L 33.625 -80.421875 C 41.34375 -80.421875 48.347656 -78.894531 54.640625 -75.84375 C 60.941406 -72.800781 64.09375 -67.015625 64.09375 -58.484375 C 64.09375 -47.679688 57.59375 -40.773438 44.59375 -37.765625 L 57.390625 -16.453125 C 60.390625 -11.410156 63.085938 -7.894531 65.484375 -5.90625 C 67.878906 -3.914062 70.664062 -2.757812 73.84375 -2.4375 L 73.84375 0 C 73.101562 0.320312 72.0625 0.601562 70.71875 0.84375 C 69.382812 1.09375 67.988281 1.21875 66.53125 1.21875 Z M 33.015625 -41.421875 C 35.535156 -41.421875 38.273438 -42.03125 41.234375 -43.25 C 44.203125 -44.46875 46.722656 -46.375 48.796875 -48.96875 C 50.867188 -51.570312 51.90625 -54.742188 51.90625 -58.484375 C 51.90625 -62.460938 50.867188 -65.769531 48.796875 -68.40625 C 46.722656 -71.050781 44.203125 -73.003906 41.234375 -74.265625 C 38.273438 -75.523438 35.535156 -76.15625 33.015625 -76.15625 C 30.171875 -76.15625 27.125 -75.75 23.875 -74.9375 L 23.875 -42.640625 C 27.125 -41.828125 30.171875 -41.421875 33.015625 -41.421875 Z M 33.015625 -41.421875 "/></g></g></g><g fill="#ffffff" fill-opacity="1"><g transform="translate(166.730194, 278.106131)"><g><path d="M 43.375 2.4375 C 35.820312 2.4375 29.179688 0.570312 23.453125 -3.15625 C 17.722656 -6.894531 13.316406 -12.015625 10.234375 -18.515625 C 7.148438 -25.015625 5.609375 -32.242188 5.609375 -40.203125 C 5.609375 -48.171875 7.148438 -55.398438 10.234375 -61.890625 C 13.316406 -68.390625 17.722656 -73.507812 23.453125 -77.25 C 29.179688 -80.988281 35.820312 -82.859375 43.375 -82.859375 C 50.925781 -82.859375 57.566406 -80.988281 63.296875 -77.25 C 69.023438 -73.507812 73.429688 -68.390625 76.515625 -61.890625 C 79.597656 -55.398438 81.140625 -48.171875 81.140625 -40.203125 C 81.140625 -32.242188 79.597656 -25.015625 76.515625 -18.515625 C 73.429688 -12.015625 69.023438 -6.894531 63.296875 -3.15625 C 57.566406 0.570312 50.925781 2.4375 43.375 2.4375 Z M 43.375 -2.4375 C 48.65625 -2.4375 53.222656 -3.976562 57.078125 -7.0625 C 60.941406 -10.15625 63.890625 -14.523438 65.921875 -20.171875 C 67.953125 -25.816406 68.96875 -32.492188 68.96875 -40.203125 C 68.96875 -47.921875 67.953125 -54.601562 65.921875 -60.25 C 63.890625 -65.894531 60.941406 -70.257812 57.078125 -73.34375 C 53.222656 -76.4375 48.65625 -77.984375 43.375 -77.984375 C 38.09375 -77.984375 33.519531 -76.4375 29.65625 -73.34375 C 25.800781 -70.257812 22.859375 -65.894531 20.828125 -60.25 C 18.804688 -54.601562 17.796875 -47.921875 17.796875 -40.203125 C 17.796875 -32.492188 18.804688 -25.816406 20.828125 -20.171875 C 22.859375 -14.523438 25.800781 -10.15625 29.65625 -7.0625 C 33.519531 -3.976562 38.09375 -2.4375 43.375 -2.4375 Z M 43.375 -2.4375 "/></g></g></g><g fill="#ffffff" fill-opacity="1"><g transform="translate(243.966453, 278.106131)"><g><path d="M 9.5 -66.15625 C 7.875 -70.875 6.144531 -74.101562 4.3125 -75.84375 C 2.488281 -77.59375 -0.25 -78.628906 -3.90625 -78.953125 L -3.90625 -81.390625 C -3.5 -81.390625 -2.90625 -81.429688 -2.125 -81.515625 C -1.351562 -81.597656 -0.5625 -81.640625 0.25 -81.640625 C 4.707031 -81.640625 8.742188 -80.625 12.359375 -78.59375 C 15.984375 -76.5625 18.890625 -72.414062 21.078125 -66.15625 L 37.40625 -19.125 L 50.4375 -57.75 L 47.515625 -66.15625 C 45.890625 -70.875 44.160156 -74.101562 42.328125 -75.84375 C 40.503906 -77.59375 37.765625 -78.628906 34.109375 -78.953125 L 34.109375 -81.390625 C 34.515625 -81.390625 35.101562 -81.429688 35.875 -81.515625 C 36.65625 -81.597656 37.453125 -81.640625 38.265625 -81.640625 C 42.722656 -81.640625 46.757812 -80.625 50.375 -78.59375 C 53.988281 -76.5625 56.894531 -72.414062 59.09375 -66.15625 L 75.421875 -19.125 L 96.25 -80.421875 L 101.5 -80.421875 L 73.59375 1.21875 L 71.15625 1.21875 L 53.125 -50.078125 L 35.578125 1.21875 L 33.140625 1.21875 Z M 9.5 -66.15625 "/></g></g></g></svg>